HIERARCHY
ROOT Hips
{
	OFFSET 71.494926 92.105927 17.642220
	CHANNELS 6 Xposition Yposition Zposition Zrotation Yrotation Xrotation 
	JOINT LeftUpLeg
	{
		OFFSET 0.103459 1.857829 10.548508
		CHANNELS 3 Zrotation Yrotation Xrotation
		JOINT LeftLeg
		{
			OFFSET 43.500000 -0.000031 -0.000004
			CHANNELS 3 Zrotation Yrotation Xrotation
			JOINT LeftFoot
			{
				OFFSET 42.372200 0.000019 0.000005
				CHANNELS 3 Zrotation Yrotation Xrotation
				JOINT LeftToe
				{
					OFFSET 17.299999 -0.000000 -0.000005
					CHANNELS 3 Zrotation Yrotation Xrotation
					End Site
					{
						OFFSET 0.000000 0.000000 0.000000
					}
				}
			}
		}
	}
	JOINT RightUpLeg
	{
		OFFSET 0.103458 1.857828 -10.548506
		CHANNELS 3 Zrotation Yrotation Xrotation
		JOINT RightLeg
		{
			OFFSET 43.500042 -0.000023 0.000011
			CHANNELS 3 Zrotation Yrotation Xrotation
			JOINT RightFoot
			{
				OFFSET 42.372261 -0.000008 0.000008
				CHANNELS 3 Zrotation Yrotation Xrotation
				JOINT RightToe
				{
					OFFSET 17.299994 -0.000005 0.000010
					CHANNELS 3 Zrotation Yrotation Xrotation
					End Site
					{
						OFFSET 0.000000 0.000000 0.000000
					}
				}
			}
		}
	}
	JOINT Spine
	{
		OFFSET 6.901963 -2.603731 0.000002
		CHANNELS 3 Zrotation Yrotation Xrotation
		JOINT Spine1
		{
			OFFSET 12.588100 0.000001 -0.000005
			CHANNELS 3 Zrotation Yrotation Xrotation
			JOINT Spine2
			{
				OFFSET 12.343208 0.000002 0.000006
				CHANNELS 3 Zrotation Yrotation Xrotation
				JOINT Neck
				{
					OFFSET 25.832893 -0.000004 -0.000005
					CHANNELS 3 Zrotation Yrotation Xrotation
					JOINT Head
					{
						OFFSET 11.766604 0.000010 0.000000
						CHANNELS 3 Zrotation Yrotation Xrotation
						End Site
						{
							OFFSET 0.000000 0.000000 0.000000
						}
					}
				}
				JOINT LeftShoulder
				{
					OFFSET 19.745903 -1.480368 6.000098
					CHANNELS 3 Zrotation Yrotation Xrotation
					JOINT LeftArm
					{
						OFFSET 11.284134 -0.000007 -0.000016
						CHANNELS 3 Zrotation Yrotation Xrotation
						JOINT LeftForeArm
						{
							OFFSET 33.000050 0.000005 0.000015
							CHANNELS 3 Zrotation Yrotation Xrotation
							JOINT LeftHand
							{
								OFFSET 25.200003 0.000014 0.000010
								CHANNELS 3 Zrotation Yrotation Xrotation
								End Site
								{
									OFFSET 0.000000 0.000000 0.000000
								}
							}
						}
					}
				}
				JOINT RightShoulder
				{
					OFFSET 19.746094 -1.480373 -6.000076
					CHANNELS 3 Zrotation Yrotation Xrotation
					JOINT RightArm
					{
						OFFSET 11.284140 -0.000016 -0.000005
						CHANNELS 3 Zrotation Yrotation Xrotation
						JOINT RightForeArm
						{
							OFFSET 33.000092 0.000015 0.000005
							CHANNELS 3 Zrotation Yrotation Xrotation
							JOINT RightHand
							{
								OFFSET 25.199781 0.000140 0.000422
								CHANNELS 3 Zrotation Yrotation Xrotation
								End Site
								{
									OFFSET 0.000000 0.000000 0.000000
								}
							}
						}
					}
				}
			}
		}
	}
}
MOTION
Frames: 12
Frame Time: 0.033333
218.586304 78.540192 -298.750610 73.840362 -4.208562 -10.319091 145.756496 -4.742796 178.013212 -74.106849 4.311728 -8.895531 85.427164 4.230189 -9.345177 21.454553 0.003092 -0.000000 166.691819 -0.654998 -171.117904 -68.006370 0.604100 11.628542 108.997211 -7.648917 5.001736 21.454560 -0.003103 -0.000018 11.938421 -0.017273 0.883658 13.862920 -0.140469 1.758812 13.544993 -0.129712 1.759639 17.435948 9.413441 25.473814 -17.473752 -13.152642 32.831896 79.932010 -76.613433 99.499901 -82.688667 9.843856 -62.636236 -64.885233 -17.918689 2.487436 25.305933 -12.405660 -58.579862 56.272122 70.015900 -123.111701 -81.586733 4.732279 42.471288 -42.896641 21.670822 -2.002979 20.255655 10.362719 22.844423 
216.988007 78.461273 -301.310486 74.422622 -4.706676 -12.407013 144.552416 -1.965896 174.531127 -67.761876 3.592269 -7.559047 85.110174 3.138433 -10.347293 21.454553 0.003091 0.000000 167.958368 -2.578292 -171.042895 -67.556595 0.635101 11.219740 110.639297 -7.381633 3.766567 21.454558 -0.003101 -0.000016 11.924788 -0.001822 1.086393 13.835485 -0.133746 2.164691 13.517644 -0.120540 2.165468 16.680309 8.857638 25.711810 -17.126628 -12.810781 32.844618 80.407726 -76.893607 99.006713 -82.480948 9.610892 -62.355140 -65.128647 -17.898224 2.495723 25.110914 -12.244319 -58.428628 55.968346 69.840645 -123.415521 -81.674740 4.892481 42.782287 -43.293270 21.647991 -2.013136 20.288951 10.643561 22.742872 
215.258804 78.293297 -303.945007 74.956320 -5.149426 -14.197996 144.064112 0.462492 171.176521 -60.000999 3.153707 -6.442746 84.794469 2.226995 -11.089621 21.454553 0.003091 0.000002 169.503589 -4.599793 -170.886238 -67.018479 0.437693 11.025850 112.265408 -7.225205 2.678509 21.454558 -0.003107 -0.000017 11.906828 -0.002980 1.257318 13.799099 -0.156122 2.505212 13.481332 -0.140858 2.506118 16.090869 8.152579 25.899099 -17.157954 -12.359364 32.806355 80.580707 -77.079716 98.819990 -82.194544 9.437501 -62.150063 -65.599773 -17.817945 2.508981 24.816451 -12.206858 -57.850247 55.268654 69.798673 -124.095316 -81.805387 5.195728 42.905336 -43.565638 21.545169 -2.014387 20.299495 10.758778 22.662021 
213.428497 78.028084 -306.640594 75.566262 -5.461549 -15.781494 144.084248 2.712496 168.048636 -51.507307 2.825001 -5.450605 84.270799 1.479363 -11.309460 21.454551 0.003092 -0.000003 171.120131 -6.609495 -170.953392 -66.441587 0.311922 11.057499 113.856706 -7.195905 1.719963 21.454557 -0.003108 -0.000017 11.840147 -0.050675 1.417199 13.664173 -0.268608 2.818391 13.346502 -0.251453 2.819968 15.936071 7.889908 26.070048 -17.410214 -12.263365 32.962203 80.296373 -77.287736 99.082781 -82.248564 9.290593 -62.241082 -65.959417 -17.727969 2.517157 24.746491 -12.442819 -57.539262 54.925195 69.697682 -124.433015 -81.672417 5.486361 42.870707 -43.839836 21.434993 -2.015940 20.529462 10.841381 22.780740 
211.566299 77.736847 -309.356293 76.154649 -5.547626 -17.278809 144.348057 4.690505 165.976547 -43.509032 1.805363 -5.022477 83.614226 1.187692 -11.225214 21.454548 0.003091 0.000002 172.811955 -8.456298 -171.396016 -65.814514 0.323270 11.269760 115.170595 -7.264860 0.809343 21.454557 -0.003101 -0.000017 11.759262 -0.136135 1.576745 13.499585 -0.455567 3.126719 13.181991 -0.436549 3.129421 15.728003 7.400702 26.225191 -17.459813 -11.948168 32.958268 80.723725 -77.498694 98.642849 -82.332241 9.058852 -62.320388 -66.081547 -17.586332 2.512202 24.624721 -12.555291 -57.330006 54.638532 69.513130 -124.720197 -81.594779 5.666043 43.026715 -43.899750 21.438036 -2.017253 20.331624 10.997348 22.980518 
209.697906 77.410530 -312.003204 76.750378 -5.313005 -18.945314 144.588602 6.216708 164.482963 -37.010835 0.291122 -4.902752 83.226251 1.069061 -11.481031 21.454555 0.003091 -0.000002 174.540867 -9.782594 -172.139728 -65.112084 0.537259 11.393521 116.467894 -7.252984 -0.167586 21.454562 -0.003099 -0.000016 11.668387 -0.299495 1.779204 13.311931 -0.801966 3.512046 12.994444 -0.780617 3.516827 15.254667 7.093400 26.260409 -17.125762 -11.758780 32.831135 80.962549 -77.642845 98.394708 -82.311552 8.839161 -62.084746 -66.225637 -17.623942 2.520628 24.830690 -12.473560 -57.498349 54.632569 69.260208 -124.739321 -81.417480 5.837739 43.148405 -43.897206 21.442622 -2.017478 20.321233 11.068498 23.152782 
207.791702 76.946060 -314.600800 77.399970 -4.892811 -20.541688 144.443324 7.406798 163.301900 -33.217525 -0.926087 -5.715897 83.806810 1.378166 -13.307865 21.454551 0.003091 0.000005 176.152833 -10.592300 -172.103992 -64.641505 0.428259 11.192358 117.704104 -7.014337 -1.101049 21.454558 -0.003109 -0.000017 11.552203 -0.495080 1.975515 13.071770 -1.210454 3.882434 12.754381 -1.186864 3.889673 14.917384 6.747606 26.271424 -16.921667 -11.393400 32.632564 80.638955 -77.860202 98.695462 -82.363332 8.718899 -62.095053 -66.513735 -17.590191 2.529903 24.914964 -12.592511 -57.290599 54.634950 69.178082 -124.741288 -81.337465 6.073125 42.989511 -44.030640 21.533870 -2.027510 20.359570 10.800850 22.825109 
205.894501 76.565788 -317.183685 77.996109 -4.509565 -21.991485 144.072746 7.876011 161.739139 -33.666002 -0.958485 -5.535627 84.419390 1.120304 -14.320289 21.454553 0.003092 0.000002 177.695404 -10.966004 -171.469331 -64.388685 0.475833 10.725601 117.911905 -6.619770 -2.081405 21.454557 -0.003113 -0.000017 11.457606 -0.675653 2.171770 12.874014 -1.589027 4.255024 12.556749 -1.563189 4.264530 14.715593 6.329196 26.290214 -16.923090 -10.970379 32.445478 80.718404 -78.075257 98.598514 -82.385257 8.617730 -62.278375 -66.816913 -17.411976 2.530940 24.927604 -12.584260 -57.269275 54.608913 69.083989 -124.771478 -81.279360 6.219392 42.957836 -44.370920 21.589132 -2.041422 20.358569 10.830050 22.766801 
203.938507 76.297478 -319.936707 78.704297 -4.374320 -23.097289 143.624180 7.674810 160.553391 -37.764826 -0.205427 -4.465412 84.476101 0.409633 -14.008438 21.454553 0.003093 -0.000008 179.451746 -11.368898 -170.426880 -63.798099 0.768114 9.944451 117.268406 -6.027793 -3.459686 21.454555 -0.003109 -0.000017 11.338009 -0.790129 2.337071 12.628169 -1.830885 4.574229 12.311004 -1.803117 4.585184 14.731635 6.067884 26.323742 -17.187710 -10.691982 32.388730 80.871912 -78.373170 98.421209 -82.451496 8.687750 -62.521059 -67.229053 -17.175098 2.528468 24.949539 -12.702278 -57.103236 54.477404 68.975833 -124.904325 -81.314836 6.117400 43.158678 -44.809337 21.698722 -2.062007 20.327302 10.793830 22.367954 
201.692902 76.012077 -322.862488 79.502746 -4.309825 -24.176209 143.421528 6.764405 160.695623 -42.622580 0.648003 -2.209862 85.999206 -1.331047 -15.482007 21.454553 0.003092 -0.000005 -178.476955 -11.601900 -169.512468 -63.126787 1.312747 8.669461 116.003509 -5.160105 -5.140866 21.454558 -0.003104 -0.000017 11.151696 -0.932205 2.525049 12.246741 -2.126693 4.937780 11.929735 -2.096735 4.950495 14.542719 6.286644 26.399402 -16.993323 -10.440003 32.375332 81.193157 -78.520381 98.091154 -82.284634 8.854591 -62.467790 -67.615143 -16.895310 2.526091 24.979057 -12.840091 -56.957463 54.732164 69.098497 -124.651499 -81.436503 6.072266 43.254133 -44.955636 21.535405 -2.055609 20.197457 11.227528 22.513902 
199.655502 76.741142 -325.454712 79.959071 -2.945395 -25.376004 143.463971 6.978898 161.370391 -43.377473 -0.018919 -3.537212 83.779524 0.553706 -9.599189 21.454551 0.003093 0.000000 -177.258490 -10.453001 -168.782854 -62.452559 1.385310 7.503538 111.665294 -4.604779 -6.582769 21.454557 -0.003106 -0.000016 11.005760 -1.348423 2.627916 11.936539 -2.960951 5.104004 11.619373 -2.929979 5.121748 13.606334 6.333812 26.466022 -16.355434 -9.966445 32.179415 81.428662 -79.057022 97.811908 -82.491985 9.151106 -62.032926 -67.625102 -16.875630 2.525125 24.721947 -12.863529 -57.082387 54.950200 69.157031 -124.437591 -81.568032 5.664970 43.374635 -45.217659 21.349351 -2.051265 20.117293 11.415579 22.266741 
197.503204 77.172653 -328.327087 80.331426 -2.187328 -25.528105 142.836809 7.120803 160.046782 -46.302187 1.458710 -3.523900 82.960810 2.171562 -1.496162 21.454551 0.003092 0.000004 -176.981143 -9.552706 -167.417704 -63.821226 2.202794 6.279162 104.586602 -4.368080 -8.554770 21.454562 -0.003103 -0.000016 10.941736 -1.581140 2.637564 11.799494 -3.423179 5.101956 11.482169 -3.392210 5.122488 13.047846 6.203789 26.407630 -16.219457 -9.619787 31.954808 81.305745 -79.050656 97.933820 -82.747277 9.122104 -62.257051 -67.829222 -17.038983 2.544843 24.619181 -12.924220 -56.759258 55.451150 69.093873 -123.956582 -81.260086 5.708397 43.317251 -45.571432 21.441851 -2.068322 20.114695 11.485118 21.948132 
